<svg width="50" height="56" viewBox="0 0 50 56" fill="none" xmlns="http://www.w3.org/2000/svg">
  <path fill-rule="evenodd" clip-rule="evenodd"
        d="M28.7478 0.16345C25.5169 0.753267 22.6919 2.88592 21.134 5.91115C20.3273 7.47762 18.6711 13.2259 18.7363 14.233C18.8854 16.535 21.715 17.6714 23.4693 16.1338C24.1083 15.5739 24.1964 15.3583 25.0464 12.2767C25.9287 9.07796 26.1312 8.53895 26.7823 7.65392C28.9359 4.72627 33.1659 5.01004 33.8391 8.12725C33.8864 8.34668 33.9969 9.77158 34.0847 11.2938C34.2837 14.7455 34.2868 14.7716 34.5713 15.3264C35.7878 17.6994 39.4481 17.185 39.9352 14.5724C40.0197 14.1192 39.719 8.47705 39.5528 7.39866C38.7943 2.47557 33.9287 -0.782499 28.7478 0.16345ZM2.18521 18.3504C-0.316297 18.8391 -0.116067 22.3943 2.42731 22.6502C3.79167 22.7875 4.94381 21.6733 4.83269 20.3239C4.7237 19.0003 3.50582 18.0925 2.18521 18.3504ZM8.5197 18.397C7.13684 18.8601 6.73776 20.9514 7.81115 22.1096C8.16136 22.4875 8.48896 22.5894 9.61722 22.6708C12.7523 22.8969 13.577 26.5566 10.7769 27.817L10.2792 28.041L5.96108 28.0797C1.15306 28.1227 1.38103 28.097 0.728099 28.6707C-0.461033 29.7157 -0.145939 31.6092 1.32604 32.2642C1.69838 32.4299 1.85061 32.443 3.86141 32.4813C6.3228 32.5282 6.41804 32.5504 7.17934 33.2522C8.36334 34.3437 8.37759 35.9634 7.21371 37.1629C6.50653 37.8919 6.42279 37.9166 4.49523 37.9636C2.95875 38.0011 2.80264 38.0181 2.45593 38.1845C0.792093 38.9833 0.827215 41.3394 2.51442 42.1087L2.91063 42.2894L8.50146 42.2901L14.0924 42.2908L14.182 41.3834C14.3201 39.9861 17.7285 21.1579 17.8858 20.924C18.143 20.5414 18.364 20.5106 20.8592 20.5106C23.2864 20.5106 23.4219 20.5284 23.5528 20.8645C23.6087 21.0077 23.1976 23.4445 21.8826 30.7652C20.1942 40.1649 19.9546 41.6372 20.0409 42.0777L20.0816 42.285L24.6881 42.3073L29.2946 42.3294L29.7491 42.537C32.3285 43.7155 31.816 47.3265 29.0064 47.7708C28.6798 47.8225 25.0722 47.851 18.7569 47.8519L9.0114 47.8532L8.61532 48.0361C6.92486 48.8164 6.91961 51.0887 8.60607 51.9681L8.93216 52.1382H18.7966C27.9238 52.1382 28.7156 52.128 29.3926 52.0009C34.0822 51.1208 36.8145 48.5998 36.8198 45.1485C36.8242 42.1954 36.0797 41.1755 32.1979 38.817C27.1521 35.7512 25.8819 34.0241 26.3187 30.8239C26.9949 25.8704 31.7279 23.9791 39.8272 25.4257C41.0164 25.6381 40.9875 25.5571 40.7019 27.8802C40.4167 30.199 40.5684 30.1029 37.8739 29.6729C34.7387 29.1725 34.3097 29.1633 33.4714 29.5773C32.1081 30.2507 31.7997 31.913 32.8007 33.1925C33.2605 33.7802 33.7896 34.1346 36.4652 35.6465C39.3233 37.2616 39.7904 37.5651 40.515 38.2777C43.4141 41.1284 43.7473 46.3386 41.3381 51.1498C39.9565 53.9089 41.0862 56 43.9587 56H44.9949L45.6702 55.6737C48.1485 54.4763 49.8815 50.9753 49.994 46.939C50.0841 43.7001 49.1602 34.8094 47.3977 21.958C47.137 20.0568 46.9237 18.4451 46.9237 18.3766C46.9237 18.2185 8.99291 18.2385 8.5197 18.397Z"
        fill="#3BB77E"/>
</svg>
