<svg width="300" height="56" viewBox="0 0 300 56" fill="none" xmlns="http://www.w3.org/2000/svg">
  <path
    d="M71.792 46.192C70.128 46.192 68.6133 46.1173 67.248 45.968C65.904 45.7973 64.816 45.616 63.984 45.424L64.56 41.68C65.52 41.7653 66.64 41.8293 67.92 41.872C69.2213 41.9147 70.48 41.936 71.696 41.936C73.0613 41.936 74.0747 41.776 74.736 41.456C75.4187 41.136 75.8347 40.5173 75.984 39.6L76.112 38.768C76.1333 38.64 76.144 38.5333 76.144 38.448C76.1653 38.3413 76.176 38.2347 76.176 38.128C76.176 37.5307 75.9627 37.104 75.536 36.848C75.1093 36.592 74.4267 36.464 73.488 36.464H71.6C69.808 36.464 68.4107 36.016 67.408 35.12C66.4267 34.2027 65.936 32.9867 65.936 31.472C65.936 31.0453 65.968 30.5973 66.032 30.128L66.352 28.208C66.6933 25.9467 67.6 24.368 69.072 23.472C70.544 22.576 72.4533 22.128 74.8 22.128C75.824 22.128 76.9867 22.2027 78.288 22.352C79.6107 22.48 80.8587 22.672 82.032 22.928L81.424 26.672C80.6773 26.608 79.8667 26.5547 78.992 26.512C78.1173 26.4693 77.264 26.448 76.432 26.448C75.6 26.4267 74.864 26.416 74.224 26.416C73.264 26.416 72.4853 26.576 71.888 26.896C71.2907 27.216 70.9173 27.8347 70.768 28.752L70.64 29.584C70.6187 29.712 70.5973 29.84 70.576 29.968C70.576 30.0747 70.576 30.1813 70.576 30.288C70.576 30.8853 70.7467 31.3227 71.088 31.6C71.4293 31.856 71.9733 31.984 72.72 31.984H74.736C76.72 31.984 78.224 32.4427 79.248 33.36C80.272 34.2773 80.784 35.4827 80.784 36.976C80.784 37.36 80.752 37.7867 80.688 38.256L80.368 40.464C80.048 42.448 79.2373 43.8987 77.936 44.816C76.6347 45.7333 74.5867 46.192 71.792 46.192ZM88.075 46.192C87.499 46.192 86.8803 46.128 86.219 46C85.579 45.8507 84.9923 45.5947 84.459 45.232C83.9256 44.848 83.5203 44.304 83.2429 43.6C82.9656 42.896 82.9229 41.9787 83.1149 40.848L85.195 27.76C85.4083 26.3947 85.8136 25.3173 86.411 24.528C87.0296 23.7173 87.7763 23.152 88.651 22.832C89.5256 22.4907 90.4856 22.32 91.531 22.32C93.131 22.32 94.7203 22.3627 96.299 22.448C97.8989 22.512 99.5309 22.608 101.195 22.736L100.555 26.704H92.203C91.435 26.704 90.8589 26.8853 90.4749 27.248C90.1123 27.6107 89.867 28.176 89.7389 28.944L89.259 32.016L98.123 32.304L97.5149 36.048L88.587 36.304L88.075 39.6C87.947 40.3893 88.043 40.944 88.363 41.264C88.7043 41.584 89.2376 41.744 89.963 41.744H98.187L97.579 45.712C96.0643 45.84 94.5283 45.9467 92.971 46.032C91.4136 46.1387 89.7816 46.192 88.075 46.192ZM106.806 46C105.377 46 104.235 45.6693 103.382 45.008C102.529 44.3253 102.102 43.2267 102.102 41.712C102.102 41.2 102.134 40.7093 102.198 40.24L105.046 22.32H109.782L107.062 39.632C107.019 39.8027 106.998 40.0053 106.998 40.24C106.998 40.7733 107.158 41.1573 107.478 41.392C107.819 41.6267 108.278 41.744 108.854 41.744H116.342L115.638 46H106.806ZM123.825 46C122.395 46 121.254 45.6693 120.401 45.008C119.547 44.3253 119.121 43.2267 119.121 41.712C119.121 41.2 119.153 40.7093 119.217 40.24L122.065 22.32H126.801L124.081 39.632C124.038 39.8027 124.017 40.0053 124.017 40.24C124.017 40.7733 124.177 41.1573 124.497 41.392C124.838 41.6267 125.297 41.744 125.873 41.744H133.361L132.657 46H123.825ZM141.099 46.192C140.523 46.192 139.904 46.128 139.243 46C138.603 45.8507 138.016 45.5947 137.483 45.232C136.95 44.848 136.544 44.304 136.267 43.6C135.99 42.896 135.947 41.9787 136.139 40.848L138.219 27.76C138.432 26.3947 138.838 25.3173 139.435 24.528C140.054 23.7173 140.8 23.152 141.675 22.832C142.55 22.4907 143.51 22.32 144.555 22.32C146.155 22.32 147.744 22.3627 149.323 22.448C150.923 22.512 152.555 22.608 154.219 22.736L153.579 26.704H145.227C144.459 26.704 143.883 26.8853 143.499 27.248C143.136 27.6107 142.891 28.176 142.763 28.944L142.283 32.016L151.147 32.304L150.539 36.048L141.611 36.304L141.099 39.6C140.971 40.3893 141.067 40.944 141.387 41.264C141.728 41.584 142.262 41.744 142.987 41.744H151.211L150.603 45.712C149.088 45.84 147.552 45.9467 145.995 46.032C144.438 46.1387 142.806 46.192 141.099 46.192ZM154.326 46L158.07 22.32H167.126C169.046 22.32 170.593 22.768 171.766 23.664C172.94 24.5387 173.526 26.0533 173.526 28.208C173.526 28.8053 173.462 29.488 173.334 30.256C173.164 31.3867 172.897 32.3253 172.534 33.072C172.172 33.8187 171.756 34.416 171.286 34.864C170.817 35.312 170.348 35.664 169.878 35.92C169.409 36.1547 169.004 36.336 168.662 36.464L171.542 46H166.71L164.31 37.2C163.798 37.2 163.169 37.2 162.422 37.2C161.676 37.1787 161.025 37.168 160.47 37.168L159.062 46H154.326ZM161.046 33.424H165.046C166.092 33.424 166.892 33.1787 167.446 32.688C168.001 32.176 168.374 31.2587 168.566 29.936C168.609 29.744 168.63 29.5627 168.63 29.392C168.652 29.2 168.662 29.0293 168.662 28.88C168.662 28.0267 168.438 27.4293 167.99 27.088C167.542 26.7467 166.934 26.576 166.166 26.576H162.134L161.046 33.424ZM191.194 46.192C188.527 46.192 186.564 45.488 185.306 44.08C184.068 42.6507 183.45 40.6773 183.45 38.16C183.45 37.4347 183.482 36.6667 183.546 35.856C183.631 35.0453 183.738 34.2347 183.866 33.424C184.442 29.712 185.487 26.9067 187.002 25.008C188.538 23.088 190.82 22.128 193.85 22.128C195.706 22.128 197.263 22.2773 198.522 22.576C199.78 22.8747 200.772 23.1733 201.498 23.472L200.89 27.216C199.972 26.9813 198.97 26.7893 197.882 26.64C196.815 26.4693 195.748 26.384 194.682 26.384C193.85 26.384 193.114 26.4907 192.474 26.704C191.834 26.9173 191.268 27.3013 190.778 27.856C190.287 28.4107 189.86 29.2107 189.498 30.256C189.135 31.3013 188.815 32.6453 188.538 34.288C188.431 35.0347 188.335 35.7493 188.25 36.432C188.186 37.0933 188.154 37.68 188.154 38.192C188.154 39.4933 188.463 40.4427 189.082 41.04C189.722 41.6373 190.842 41.936 192.442 41.936C193.871 41.936 195.034 41.904 195.93 41.84C196.826 41.7547 197.722 41.6587 198.618 41.552L198.01 45.264C196.943 45.648 195.812 45.8933 194.618 46C193.423 46.128 192.282 46.192 191.194 46.192ZM206.767 46.192C206.191 46.192 205.572 46.128 204.911 46C204.271 45.8507 203.684 45.5947 203.151 45.232C202.617 44.848 202.212 44.304 201.935 43.6C201.657 42.896 201.615 41.9787 201.807 40.848L203.887 27.76C204.1 26.3947 204.505 25.3173 205.103 24.528C205.721 23.7173 206.468 23.152 207.343 22.832C208.217 22.4907 209.177 22.32 210.223 22.32C211.823 22.32 213.412 22.3627 214.991 22.448C216.591 22.512 218.223 22.608 219.887 22.736L219.247 26.704H210.895C210.127 26.704 209.551 26.8853 209.167 27.248C208.804 27.6107 208.559 28.176 208.431 28.944L207.951 32.016L216.815 32.304L216.207 36.048L207.279 36.304L206.767 39.6C206.639 40.3893 206.735 40.944 207.055 41.264C207.396 41.584 207.929 41.744 208.655 41.744H216.879L216.271 45.712C214.756 45.84 213.22 45.9467 211.663 46.032C210.105 46.1387 208.473 46.192 206.767 46.192ZM219.994 46L223.738 22.32H227.546L234.97 37.936L237.466 22.32H242.202L238.426 46H234.65L227.226 30.352L224.73 46H219.994ZM247.416 46L250.456 26.576H243.992L244.664 22.32H262.392L261.72 26.576H255.224L252.152 46H247.416ZM267.103 46.192C266.527 46.192 265.909 46.128 265.247 46C264.607 45.8507 264.021 45.5947 263.487 45.232C262.954 44.848 262.549 44.304 262.271 43.6C261.994 42.896 261.951 41.9787 262.143 40.848L264.223 27.76C264.437 26.3947 264.842 25.3173 265.439 24.528C266.058 23.7173 266.805 23.152 267.679 22.832C268.554 22.4907 269.514 22.32 270.559 22.32C272.159 22.32 273.749 22.3627 275.327 22.448C276.927 22.512 278.559 22.608 280.223 22.736L279.583 26.704H271.231C270.463 26.704 269.887 26.8853 269.503 27.248C269.141 27.6107 268.895 28.176 268.767 28.944L268.287 32.016L277.151 32.304L276.543 36.048L267.615 36.304L267.103 39.6C266.975 40.3893 267.071 40.944 267.391 41.264C267.733 41.584 268.266 41.744 268.991 41.744H277.215L276.607 45.712C275.093 45.84 273.557 45.9467 271.999 46.032C270.442 46.1387 268.81 46.192 267.103 46.192ZM280.33 46L284.074 22.32H293.13C295.05 22.32 296.597 22.768 297.77 23.664C298.944 24.5387 299.53 26.0533 299.53 28.208C299.53 28.8053 299.466 29.488 299.338 30.256C299.168 31.3867 298.901 32.3253 298.538 33.072C298.176 33.8187 297.76 34.416 297.29 34.864C296.821 35.312 296.352 35.664 295.882 35.92C295.413 36.1547 295.008 36.336 294.666 36.464L297.546 46H292.714L290.314 37.2C289.802 37.2 289.173 37.2 288.426 37.2C287.68 37.1787 287.029 37.168 286.474 37.168L285.066 46H280.33ZM287.05 33.424H291.05C292.096 33.424 292.896 33.1787 293.45 32.688C294.005 32.176 294.378 31.2587 294.57 29.936C294.613 29.744 294.634 29.5627 294.634 29.392C294.656 29.2 294.666 29.0293 294.666 28.88C294.666 28.0267 294.442 27.4293 293.994 27.088C293.546 26.7467 292.938 26.576 292.17 26.576H288.138L287.05 33.424Z"
    fill="#3BB77E"/>
  <path fill-rule="evenodd" clip-rule="evenodd"
        d="M28.7478 0.16345C25.5169 0.753267 22.6919 2.88592 21.134 5.91115C20.3273 7.47762 18.6711 13.2259 18.7363 14.233C18.8854 16.535 21.715 17.6714 23.4693 16.1338C24.1083 15.5739 24.1964 15.3583 25.0464 12.2767C25.9287 9.07796 26.1312 8.53895 26.7823 7.65392C28.9359 4.72627 33.1659 5.01004 33.8391 8.12725C33.8864 8.34668 33.9969 9.77158 34.0847 11.2938C34.2837 14.7455 34.2868 14.7716 34.5713 15.3264C35.7878 17.6994 39.4481 17.185 39.9352 14.5724C40.0197 14.1192 39.719 8.47705 39.5528 7.39866C38.7943 2.47557 33.9287 -0.782499 28.7478 0.16345ZM2.18521 18.3504C-0.316297 18.8391 -0.116067 22.3943 2.42731 22.6502C3.79167 22.7875 4.94381 21.6733 4.83269 20.3239C4.7237 19.0003 3.50582 18.0925 2.18521 18.3504ZM8.5197 18.397C7.13684 18.8601 6.73776 20.9514 7.81115 22.1096C8.16136 22.4875 8.48896 22.5894 9.61722 22.6708C12.7523 22.8969 13.577 26.5566 10.7769 27.817L10.2792 28.041L5.96108 28.0797C1.15306 28.1227 1.38103 28.097 0.728099 28.6707C-0.461033 29.7157 -0.145939 31.6092 1.32604 32.2642C1.69838 32.4299 1.85061 32.443 3.86141 32.4813C6.3228 32.5282 6.41804 32.5504 7.17934 33.2522C8.36334 34.3437 8.37759 35.9634 7.21371 37.1629C6.50653 37.8919 6.42279 37.9166 4.49523 37.9636C2.95875 38.0011 2.80264 38.0181 2.45593 38.1845C0.792093 38.9833 0.827215 41.3394 2.51442 42.1087L2.91063 42.2894L8.50146 42.2901L14.0924 42.2908L14.182 41.3834C14.3201 39.9861 17.7285 21.1579 17.8858 20.924C18.143 20.5414 18.364 20.5106 20.8592 20.5106C23.2864 20.5106 23.4219 20.5284 23.5528 20.8645C23.6087 21.0077 23.1976 23.4445 21.8826 30.7652C20.1942 40.1649 19.9546 41.6372 20.0409 42.0777L20.0816 42.285L24.6881 42.3073L29.2946 42.3294L29.7491 42.537C32.3285 43.7155 31.816 47.3265 29.0064 47.7708C28.6798 47.8225 25.0722 47.851 18.7569 47.8519L9.0114 47.8532L8.61532 48.0361C6.92486 48.8164 6.91961 51.0887 8.60607 51.9681L8.93216 52.1382H18.7966C27.9238 52.1382 28.7156 52.128 29.3926 52.0009C34.0822 51.1208 36.8145 48.5998 36.8198 45.1485C36.8242 42.1954 36.0797 41.1755 32.1979 38.817C27.1521 35.7512 25.8819 34.0241 26.3187 30.8239C26.9949 25.8704 31.7279 23.9791 39.8272 25.4257C41.0164 25.6381 40.9875 25.5571 40.7019 27.8802C40.4167 30.199 40.5684 30.1029 37.8739 29.6729C34.7387 29.1725 34.3097 29.1633 33.4714 29.5773C32.1081 30.2507 31.7997 31.913 32.8007 33.1925C33.2605 33.7802 33.7896 34.1346 36.4652 35.6465C39.3233 37.2616 39.7904 37.5651 40.515 38.2777C43.4141 41.1284 43.7473 46.3386 41.3381 51.1498C39.9565 53.9089 41.0862 56 43.9587 56H44.9949L45.6702 55.6737C48.1485 54.4763 49.8815 50.9753 49.994 46.939C50.0841 43.7001 49.1602 34.8094 47.3977 21.958C47.137 20.0568 46.9237 18.4451 46.9237 18.3766C46.9237 18.2185 8.99291 18.2385 8.5197 18.397Z"
        fill="#3BB77E"/>
</svg>
